<?xml version="1.0" encoding="UTF-8" standalone="no"?>
<svg
   xmlns:dc="http://purl.org/dc/elements/1.1/"
   xmlns:cc="http://creativecommons.org/ns#"
   xmlns:rdf="http://www.w3.org/1999/02/22-rdf-syntax-ns#"
   xmlns:svg="http://www.w3.org/2000/svg"
   xmlns="http://www.w3.org/2000/svg"
   xmlns:xlink="http://www.w3.org/1999/xlink"
   xmlns:sodipodi="http://sodipodi.sourceforge.net/DTD/sodipodi-0.dtd"
   xmlns:inkscape="http://www.inkscape.org/namespaces/inkscape"
   width="70"
   height="70"
   viewBox="0 0 70 70"
   version="1.1"
   id="svg30"
   sodipodi:docname="icon.svg"
   inkscape:version="1.0.2 (e86c870879, 2021-01-15)">
  <metadata
     id="metadata34">
    <rdf:RDF>
      <cc:Work
         rdf:about="">
        <dc:format>image/svg+xml</dc:format>
        <dc:type
           rdf:resource="http://purl.org/dc/dcmitype/StillImage" />
      </cc:Work>
    </rdf:RDF>
  </metadata>
  <sodipodi:namedview
     pagecolor="#ffffff"
     bordercolor="#666666"
     borderopacity="1"
     objecttolerance="10"
     gridtolerance="10"
     guidetolerance="10"
     inkscape:pageopacity="0"
     inkscape:pageshadow="2"
     inkscape:window-width="1600"
     inkscape:window-height="820"
     id="namedview32"
     showgrid="false"
     inkscape:zoom="7.4142857"
     inkscape:cx="32.774566"
     inkscape:cy="35"
     inkscape:window-x="0"
     inkscape:window-y="0"
     inkscape:window-maximized="1"
     inkscape:current-layer="g26" />
  <defs
     id="defs9">
    <path
       id="a"
       d="M4 0h61c4 0 5 1 5 5v60c0 4-1 5-5 5H4c-3 0-4-1-4-5V5c0-4 1-5 4-5z" />
    <linearGradient
       id="c"
       x1="100%"
       x2="0%"
       y1="0%"
       y2="100%">
      <stop
         offset="0%"
         stop-color="#7CC098"
         id="stop3" />
      <stop
         offset="100%"
         stop-color="#5F8A71"
         id="stop5" />
    </linearGradient>
    <path
       id="d"
       d="M35.5 16.633c6.472 0 11.719 5.083 11.719 11.354 0 6.27-5.247 11.354-11.719 11.354-6.472 0-11.719-5.084-11.719-11.354S29.028 16.633 35.5 16.633zm13.424 23.688l-5.223-1.265c-5.488 3.824-12.14 2.971-16.402 0l-5.223 1.265c-3.13.759-5.326 3.483-5.326 6.61v2.628c0 1.881 1.574 3.406 3.516 3.406h30.468c1.942 0 3.516-1.525 3.516-3.406V46.93c0-3.126-2.196-5.85-5.326-6.609z" />
  </defs>
  <g
     fill="none"
     fill-rule="evenodd"
     id="g28">
    <mask
       id="b"
       fill="#fff">
      <use
         xlink:href="#a"
         id="use11" />
    </mask>
    <g
       mask="url(#b)"
       id="g26">
      <path
         fill="url(#c)"
         d="M0 0H70V70H0z"
         id="path14"
         style="fill:#b11414;fill-opacity:1"
         inkscape:export-filename="/home/mob/icon.png"
         inkscape:export-xdpi="192"
         inkscape:export-ydpi="192" />
      <path
         fill="#FFF"
         fill-opacity=".383"
         d="M4 1h61c2.667 0 4.333.667 5 2V0H0v3c.667-1.333 2-2 4-2z"
         id="path16"
         inkscape:export-filename="/home/mob/icon.png"
         inkscape:export-xdpi="192"
         inkscape:export-ydpi="192" />
      <path
         fill="#393939"
         d="M 4,69 C 2,69 0,68.854 0,64.918 V 44.253 L 12.054774,32.698637 36.615426,40.097523 38.174,42.008 53,42.469 61.158669,43.865064 41.75,69 Z"
         opacity="0.324"
         id="path18"
         sodipodi:nodetypes="sscccccccs"
         inkscape:export-filename="/home/mob/icon.png"
         inkscape:export-xdpi="192"
         inkscape:export-ydpi="192" />
      <path
         fill="#000"
         fill-opacity=".383"
         d="M4 69h61c2.667 0 4.333-1 5-3v4H0v-4c.667 2 2 3 4 3z"
         id="path20"
         inkscape:export-filename="/home/mob/icon.png"
         inkscape:export-xdpi="192"
         inkscape:export-ydpi="192" />
      <use
         fill="#000000"
         fill-rule="nonzero"
         opacity="0.3"
         xlink:href="#d"
         id="use22"
         transform="matrix(0.6605656,0,0,0.6605656,-0.83745966,6.3120032)"
         x="0"
         y="0"
         width="100%"
         height="100%"
         inkscape:export-filename="/home/mob/icon.png"
         inkscape:export-xdpi="192"
         inkscape:export-ydpi="192" />
      <path
         fill="#ffffff"
         fill-rule="nonzero"
         d="m 22.612619,15.97806 c 4.275181,0 7.741168,3.357655 7.741168,7.500062 0,4.141746 -3.465987,7.500062 -7.741168,7.500062 -4.275181,0 -7.741168,-3.358316 -7.741168,-7.500062 0,-4.141746 3.465987,-7.500062 7.741168,-7.500062 z m 8.867433,15.647478 -3.450135,-0.835616 c -3.625184,2.526003 -8.019266,1.962541 -10.834596,0 l -3.450135,0.835616 c -2.06757,0.501369 -3.518172,2.30075 -3.518172,4.366339 v 1.735966 c 0,1.242524 1.03973,2.249886 2.322549,2.249886 h 20.126112 c 1.282819,0 2.322549,-1.007362 2.322549,-2.249886 v -1.736627 c 0,-2.064928 -1.450602,-3.864309 -3.518172,-4.365678 z"
         id="path24"
         style="stroke-width:0.660566"
         inkscape:export-filename="/home/mob/icon.png"
         inkscape:export-xdpi="192"
         inkscape:export-ydpi="192" />
      <use
         fill="#000000"
         fill-rule="nonzero"
         opacity="0.3"
         xlink:href="#d"
         id="use22-3"
         transform="matrix(0.6605656,0,0,0.6605656,25.442022,10.86327)"
         x="0"
         y="0"
         width="100%"
         height="100%"
         inkscape:export-filename="/home/mob/icon.png"
         inkscape:export-xdpi="192"
         inkscape:export-ydpi="192" />
      <path
         fill="#ffffff"
         fill-rule="nonzero"
         d="m 48.892101,20.529327 c 4.275181,0 7.741168,3.357655 7.741168,7.500062 0,4.141746 -3.465987,7.500062 -7.741168,7.500062 -4.275181,0 -7.741168,-3.358316 -7.741168,-7.500062 0,-4.141746 3.465987,-7.500062 7.741168,-7.500062 z m 8.867433,15.647478 -3.450135,-0.835616 c -3.625184,2.526003 -8.019266,1.962541 -10.834596,0 l -3.450135,0.835616 c -2.06757,0.501369 -3.518172,2.30075 -3.518172,4.366339 v 1.735966 c 0,1.242524 1.03973,2.249886 2.322549,2.249886 h 20.126112 c 1.282819,0 2.322549,-1.007362 2.322549,-2.249886 v -1.736627 c 0,-2.064928 -1.450602,-3.864309 -3.518172,-4.365678 z"
         id="path24-6"
         style="stroke-width:0.660566"
         inkscape:export-filename="/home/mob/icon.png"
         inkscape:export-xdpi="192"
         inkscape:export-ydpi="192" />
      <use
         fill="#000000"
         fill-rule="nonzero"
         opacity="0.3"
         xlink:href="#d"
         id="use22-7"
         transform="matrix(0.6605656,0,0,0.6605656,11.023526,21.609812)"
         x="0"
         y="0"
         width="100%"
         height="100%"
         inkscape:export-filename="/home/mob/icon.png"
         inkscape:export-xdpi="192"
         inkscape:export-ydpi="192" />
      <path
         fill="#ffffff"
         fill-rule="nonzero"
         d="m 34.273961,33.275426 c 4.275181,0 7.741168,3.357655 7.741168,7.500062 0,4.141746 -3.465987,7.500062 -7.741168,7.500062 -4.275181,0 -7.741168,-3.358316 -7.741168,-7.500062 0,-4.141746 3.465987,-7.500062 7.741168,-7.500062 z m 8.867433,15.647478 -3.450135,-0.835616 c -3.625184,2.526003 -8.019266,1.962541 -10.834596,0 l -3.450135,0.835616 c -2.06757,0.501369 -3.518172,2.30075 -3.518172,4.366339 v 1.735966 c 0,1.242524 1.03973,2.249886 2.322549,2.249886 h 20.126112 c 1.282819,0 2.322549,-1.007362 2.322549,-2.249886 v -1.736627 c 0,-2.064928 -1.450602,-3.864309 -3.518172,-4.365678 z"
         id="path24-5"
         style="stroke-width:0.660566"
         inkscape:export-filename="/home/mob/icon.png"
         inkscape:export-xdpi="192"
         inkscape:export-ydpi="192" />
    </g>
  </g>
</svg>
